
<svg xmlns="http://www.w3.org/2000/svg" version="1.1" xmlns:xlink="http://www.w3.org/1999/xlink" preserveAspectRatio="none" x="0px" y="0px" width="1000px" height="1000px" viewBox="0 0 1000 1000">
<defs>
<g id="Layer1_0_FILL">
<path fill="#000000" stroke="none" d="
M 1653.1 -932.7
L -655.3 -932.7 -655.3 1925.15 1653.1 1925.15 1653.1 -932.7 Z"/>
</g>

<g id="Layer0_0_FILL">
<path fill="#FFFFFF" stroke="none" d="
M 290.15 409.65
Q 266.3 406.3 243.05 405.65 242.85 405.65 242.7 405.65 219.4 406.3 195.65 409.65 176.1 412.45 156.25 417.05 154.55 417.45 152.95 417.8 139.85 420.9 128 425.15 81.5 441.8 53.65 475.95 52.45 477.25 51.45 478.6 32.5 506.75 22.7 544.85 21.5 549.4 20.45 554.1 11.6 592.85 11.4 637.85 11.4 637.95 11.4 638 11.4 641 11.5 643.95 11.4 647 11.4 650.1 11.4 650.15 11.4 650.25 11.6 695.6 20.45 734.75 21.5 739.45 22.7 744.1 32.5 782.5 51.45 810.95 52.45 812.35 53.65 813.65 81.5 848.1 128 864.9 139.85 869.2 152.95 872.35 154.55 872.7 156.25 873.1 176.1 877.75 195.65 880.55 219.4 883.95 242.7 884.6 242.85 884.6 243.05 884.6 266.3 883.95 290.15 880.55 309.65 877.75 329.55 873.1 331.2 872.7 332.85 872.35 397.25 856.75 432.2 813.65 433.3 812.35 434.35 810.95 434.75 810.3 435.25 809.65 453.55 781.6 463.15 744.1 464.35 739.45 465.45 734.75 474.2 695.6 474.4 650.25 474.4 650.15 474.4 650.1 474.4 647.05 474.35 644.05 474.4 641.05 474.4 638 474.4 637.95 474.4 637.85 474.2 592.85 465.45 554.1 464.35 549.4 463.15 544.85 453.55 507.7 435.25 479.9 434.75 479.25 434.35 478.6 433.3 477.25 432.2 475.95 397.25 433.25 332.85 417.8 331.2 417.45 329.55 417.05 309.65 412.45 290.15 409.65
M 125.1 650.1
Q 125.1 647.05 125.15 644.05 125.15 644 125.15 643.95 125.1 641 125.1 638 125.2 595.95 133.05 564.9 150.05 498.2 242.7 495.15 335.65 498.1 352.65 564.9 360.65 595.95 360.75 638 360.75 641 360.7 643.95 360.7 644 360.7 644.05 360.75 647.05 360.75 650.1 360.65 692.55 352.65 723.85 335.65 791.25 242.7 794.25 150.05 791.15 133.05 723.85 125.2 692.55 125.1 650.1
M 939.9 423.6
L 848 423.35
Q 806.3 425.2 774.85 463.85
L 696.65 560.05 619.5 463.85
Q 588.4 423.4 548.05 422.6
L 453.55 422.35 629.9 642.15 440.5 877.35 534.85 877.35
Q 580.2 875.95 605.5 840.85
L 697.35 726.2 789.35 840.85
Q 815.4 877.4 861.9 877.35
L 951.25 877.35 763.65 643.5 939.9 423.6
M 988.65 145.65
Q 988.65 120.15 975.55 96.9 945.45 150 846.7 191.25 704.75 250.6 504.05 250.6 303.3 250.6 161.35 191.25 62.6 150 32.6 96.9 19.45 120.15 19.45 145.65 19.45 227.2 153.6 285.45 157.4 287.1 161.35 288.75 207.65 308.1 260.2 321.15 353.7 344.35 466.95 347.6 477.95 347.9 489.15 348.05 496.55 348.1 504.05 348.1 704.75 348.1 846.7 288.75 988.65 229.5 988.65 145.65 Z"/>
</g>

<path id="Layer0_0_1_STROKES" stroke="#FFFFFF" stroke-width="1" stroke-linejoin="round" stroke-linecap="round" fill="none" d="
M 988.65 145.65
Q 988.65 229.5 846.7 288.75 704.75 348.1 504.05 348.1 496.55 348.1 489.15 348.05 477.95 347.9 466.95 347.6 353.7 344.35 260.2 321.15 207.65 308.1 161.35 288.75 157.4 287.1 153.6 285.45 19.45 227.2 19.45 145.65 19.45 120.15 32.6 96.9 62.6 150 161.35 191.25 303.3 250.6 504.05 250.6 704.75 250.6 846.7 191.25 945.45 150 975.55 96.9 988.65 120.15 988.65 145.65 Z
M 453.55 422.35
L 629.9 642.15 440.5 877.35 534.85 877.35
Q 580.2 875.95 605.5 840.85
L 697.35 726.2 789.35 840.85
Q 815.4 877.4 861.9 877.35
L 951.25 877.35 763.65 643.5 939.9 423.6 848 423.35
Q 806.3 425.2 774.85 463.85
L 696.65 560.05 619.5 463.85
Q 588.4 423.4 548.05 422.6
L 453.55 422.35 Z"/>
</defs>

<g transform="matrix( 1, 0, 0, 1, 0,0) ">
<use xlink:href="#Layer1_0_FILL"/>
</g>

<g transform="matrix( 1, 0, 0, 1, 0,0) ">
<use xlink:href="#Layer0_0_FILL"/>

<use xlink:href="#Layer0_0_1_STROKES"/>
</g>
</svg>
